# Blender 4.4.0
# www.blender.org
mtllib furniture.mtl
o Cube.001
v 1.000000 -0.127393 -0.695997
v -1.000000 -0.127393 -0.695997
v 1.000000 -0.127393 0.695997
v -1.000000 -0.127393 0.695997
v 1.000000 0.127392 -0.695997
v -1.000000 0.127392 -0.695997
v 1.000000 0.127392 0.695997
v -1.000000 0.127392 0.695997
v -1.057909 0.134770 0.736302
v -1.057909 -0.134770 0.736302
v 1.057909 0.134770 -0.736302
v -1.057909 0.134770 -0.736302
v -1.057909 -0.134770 -0.736302
v 1.057909 -0.134770 -0.736302
v 1.057909 0.134770 0.736302
v 1.057909 -0.134770 0.736302
v 1.057909 0.152451 -0.736302
v -1.057909 0.152451 -0.736302
v -1.057909 -0.152451 -0.736302
v 1.057909 -0.152451 -0.736302
v -1.057909 0.118432 0.784566
v -1.057909 0.147652 0.673242
v -1.057909 0.134776 0.736327
v -1.057909 0.132903 0.769652
v -1.057909 0.143598 0.728904
v -1.057909 -0.147652 0.673242
v -1.057909 -0.118432 0.784566
v -1.057909 -0.134776 0.736327
v -1.057909 -0.143598 0.728904
v -1.057909 -0.132903 0.769652
v 1.057909 0.147652 0.673242
v 1.057909 0.118432 0.784566
v 1.057909 0.134776 0.736327
v 1.057909 0.143598 0.728904
v 1.057909 0.132903 0.769652
v 1.057909 -0.118432 0.784566
v 1.057909 -0.147652 0.673242
v 1.057909 -0.134776 0.736327
v 1.057909 -0.132903 0.769652
v 1.057909 -0.143598 0.728904
vn 1.0000 -0.0000 -0.0000
vn -0.0000 0.9837 -0.1800
vn -1.0000 -0.0000 -0.0000
vn -0.0000 -0.0000 -1.0000
vn -0.5713 -0.0000 -0.8208
vn 0.5713 -0.0000 -0.8208
vn -0.0000 -0.9837 -0.1800
vn 0.1264 0.9920 -0.0000
vn -0.1264 -0.9920 -0.0000
vn 0.1264 -0.9920 -0.0000
vn -0.1264 0.9920 -0.0000
vn -0.0000 1.0000 0.0034
vn -0.0000 -1.0000 0.0034
vn -0.0000 -0.0000 1.0000
vn -0.0000 0.7177 0.6964
vn -0.0000 0.9672 0.2539
vn -0.0000 0.9974 0.0726
vn -0.0000 -0.7177 0.6964
vn -0.0000 -0.9672 0.2539
vn -0.0000 -0.9974 0.0726
vt 0.375000 0.000000
vt 0.625000 0.000000
vt 0.625000 0.250000
vt 0.375000 0.250000
vt 0.375000 1.000000
vt 0.625000 1.000000
vt 0.375000 0.500000
vt 0.625000 0.500000
vt 0.625000 0.750000
vt 0.375000 0.750000
vt 0.600521 0.250000
vt 0.399479 0.250000
vt 0.625000 0.731701
vt 0.125000 0.518299
vt 0.375000 0.518299
vt 0.125000 0.750000
vt 0.375000 0.731701
vt 0.625000 0.231701
vt 0.875000 0.500000
vt 0.875000 0.731701
vt 0.625000 0.731701
vt 0.375000 0.274479
vt 0.625000 0.274479
vt 0.625000 0.475521
vt 0.375000 0.475521
vt 0.375000 0.231701
vt 0.375000 0.740883
vt 0.625000 0.740883
vt 0.625000 0.742176
vt 0.625000 0.747669
vt 0.612803 0.250000
vt 0.875000 0.750000
vt 0.875000 0.747669
vt 0.875000 0.742176
vt 0.875000 0.740883
vt 0.625000 0.487803
vt 0.375000 0.487803
vt 0.125000 0.500000
vt 0.625000 0.740883
vt 0.875000 0.740883
vt 0.600521 0.750000
vt 0.399479 0.750000
s 0
f 1/1/1 5/2/1 7/3/1 3/4/1
f 2/5/2 1/6/2 14/6/2 13/5/2
f 6/7/3 2/8/3 4/9/3 8/10/3
f 6/10/4 5/9/4 1/6/4 2/5/4
f 8/10/5 4/9/5 10/9/5 9/10/5
f 3/4/6 7/3/6 15/3/6 16/4/6
f 16/4/1 15/3/1 33/3/1 32/11/1 36/12/1 38/4/1
f 10/9/3 13/8/3 19/8/3 26/13/3 28/9/3
f 5/9/7 6/10/7 12/10/7 11/9/7
f 1/1/8 3/4/8 16/4/8 14/1/8
f 6/7/9 8/10/9 9/10/9 12/7/9
f 7/3/10 5/2/10 11/2/10 15/3/10
f 4/9/11 2/8/11 13/8/11 10/9/11
f 22/14/12 31/15/12 17/10/12 18/16/12
f 12/7/3 9/10/3 23/10/3 22/17/3 18/7/3
f 15/3/1 11/2/1 17/2/1 31/18/1 33/3/1
f 19/8/13 20/19/13 37/20/13 26/21/13
f 27/22/14 36/23/14 32/24/14 21/25/14
f 14/1/1 16/4/1 38/4/1 37/26/1 20/1/1
f 13/5/4 14/6/4 20/6/4 19/5/4
f 11/9/4 12/10/4 18/10/4 17/9/4
f 21/10/3 24/10/3 23/10/3
f 24/10/3 25/27/3 23/10/3
f 25/27/3 22/17/3 23/10/3
f 26/21/3 29/28/3 28/29/3
f 29/28/3 30/30/3 28/29/3
f 30/30/3 27/9/3 28/29/3
f 31/3/1 34/3/1 33/3/1
f 34/3/1 35/31/1 33/3/1
f 35/31/1 32/11/1 33/3/1
f 36/32/1 39/33/1 38/34/1
f 39/33/1 40/35/1 38/34/1
f 40/35/1 37/20/1 38/34/1
f 21/25/15 32/24/15 35/36/15 24/37/15
f 24/37/16 35/36/16 34/8/16 25/7/16
f 25/38/17 34/7/17 31/15/17 22/14/17
f 36/23/18 27/22/18 30/4/18 39/3/18
f 39/32/19 30/9/19 29/39/19 40/40/19
f 40/40/20 29/39/20 26/21/20 37/20/20
f 9/10/3 10/9/3 28/9/3 27/41/3 21/42/3 23/10/3
