# Blender 4.4.0
# www.blender.org
mtllib knifeblock.mtl
o knife_block
v 6.745075 0.031830 9.073140
v 6.745075 0.031830 8.186149
v 7.789052 0.031830 9.073140
v 7.359117 0.988618 8.855455
v 7.239769 0.893805 8.609963
v 7.359117 0.988618 8.888094
v 7.239769 0.893805 8.649630
v 7.144536 0.791556 8.362654
v 7.789052 1.224451 9.073140
v 7.144536 0.791556 8.406356
v 7.789052 0.031830 8.186149
v 7.753693 0.412953 8.867833
v 7.789052 1.224451 8.186149
v 7.585483 0.660886 8.855455
v 6.745075 0.777218 9.073140
v 7.585483 0.660886 8.888094
v 7.719312 0.194178 8.625007
v 7.753693 0.412953 8.875716
v 6.745075 0.777218 8.186149
v 7.311271 0.938848 8.855455
v 7.514880 0.495500 8.609963
v 7.257971 0.883582 8.867833
v 7.789052 0.777218 8.186149
v 7.257971 0.883582 8.875716
v 7.514880 0.495500 8.649630
v 7.311271 0.938848 8.888094
v 7.789052 0.777218 9.073140
v 7.591072 0.489805 8.875716
v 7.719312 0.194178 8.634587
v 7.521830 0.691257 8.888094
v 7.181621 0.833317 8.609963
v 7.521830 0.691257 8.855455
v 7.591072 0.489805 8.867833
v 7.447645 0.352717 8.362654
v 7.425241 0.031830 8.186149
v 7.116843 0.766150 8.625007
v 7.116843 0.766150 8.634587
v 7.447645 0.352717 8.406356
v 7.425241 1.224451 8.186149
v 7.181621 0.833317 8.649630
v 7.425241 0.031830 9.073140
v 7.521672 0.287580 8.634587
v 7.080471 0.724913 8.362654
v 7.437520 0.532411 8.649630
v 7.437520 0.532412 8.609963
v 7.009100 0.650911 8.379227
v 7.425241 1.224451 9.073140
v 7.521672 0.287580 8.625007
v 7.009100 0.650911 8.389783
v 7.080471 0.724913 8.406356
v 7.455127 0.123639 8.389783
v 7.362411 0.393385 8.406356
v 7.362411 0.393385 8.362654
v 7.455127 0.123639 8.379227
v 7.649395 0.031830 8.379227
v 7.649395 0.031830 8.389783
v 7.665273 0.031830 8.390021
v 7.665350 0.031830 8.390337
v 7.665350 0.031830 8.388876
v 7.665350 0.031830 8.378673
v 6.863879 0.855336 8.389783
v 6.863879 0.855336 8.379227
v 6.948426 0.910929 8.362654
v 6.948426 0.910929 8.406356
v 7.023698 0.960423 8.406356
v 7.023698 0.960423 8.362654
v 7.069852 0.990770 8.649630
v 7.138216 1.035721 8.649630
v 7.138216 1.035721 8.609963
v 6.993118 0.940315 8.634587
v 6.993118 0.940315 8.625007
v 7.069852 0.990770 8.609963
v 7.146174 1.040955 8.867833
v 7.146174 1.040955 8.875716
v 7.209318 1.082474 8.855455
v 7.209318 1.082474 8.888094
v 7.265514 1.119424 8.888094
v 7.242571 1.104339 8.855455
v 7.265514 1.119424 8.855455
vn 1.0000 -0.0000 -0.0000
vn -0.0000 -0.0000 -1.0000
vn -0.0000 -1.0000 -0.0000
vn -1.0000 -0.0000 -0.0000
vn -0.0000 -0.0000 1.0000
vn -0.0000 1.0000 -0.0000
vn -0.5494 0.8356 -0.0000
vn 0.7635 0.6458 -0.0000
vn 0.4273 0.9041 -0.0000
vn 0.8152 0.5791 -0.0000
vn -0.8132 -0.5819 -0.0000
vn -0.8243 -0.5662 -0.0000
vn 0.1319 0.0937 -0.9868
vn 0.1212 0.1027 -0.9873
vn 0.1319 0.0937 0.9868
vn 0.1212 0.1027 0.9873
vn 0.0347 0.0732 -0.9967
vn 0.0347 0.0732 0.9967
vn -0.8243 -0.5661 -0.0000
vt 0.531250 0.750000
vt 0.375000 0.750000
vt 0.375000 0.500000
vt 0.531250 0.500000
vt 0.625000 0.500000
vt 0.625000 0.750000
vt 0.375000 0.412879
vt 0.375000 0.250000
vt 0.531250 0.250000
vt 0.625000 0.412879
vt 0.345377 0.557139
vt 0.345377 0.554263
vt 0.287879 0.750000
vt 0.287879 0.500000
vt 0.341557 0.554420
vt 0.341557 0.557395
vt 0.345377 0.557551
vt 0.345359 0.557462
vt 0.375000 0.000000
vt 0.531250 0.000000
vt 0.375000 0.837121
vt 0.625000 0.837121
vt 0.531250 1.000000
vt 0.375000 1.000000
vt 0.712121 0.500000
vt 0.712121 0.750000
vt 0.125000 0.500000
vt 0.125000 0.750000
vt 0.597210 0.306866
vt 0.605342 0.345776
vt 0.605342 0.343382
vt 0.617615 0.361774
vt 0.635795 0.409160
vt 0.635795 0.411777
vt 0.663545 0.516452
vt 0.669646 0.538635
vt 0.669646 0.544367
vt 0.654702 0.488428
vt 0.637911 0.424317
vt 0.637911 0.423723
vt 0.617615 0.361486
vt 0.654702 0.484195
vt 0.597210 0.307744
vt 0.585326 0.304151
vt 0.562843 0.261750
vt 0.562843 0.263855
vt 0.585326 0.309517
vt 0.625000 0.595084
vt 0.625000 0.576916
vt 0.625000 0.539471
vt 0.625000 0.560817
vt 0.256121 0.595084
vt 0.375000 0.595084
vt 0.256435 0.578906
vt 0.256852 0.557456
vt 0.318307 0.668310
vt 0.375000 0.683500
vt 0.270251 0.611723
vt 0.431083 0.669688
vt 0.314618 0.428157
vt 0.435382 0.321843
vt 0.506533 0.643159
vt 0.625000 0.683500
vt 0.625000 0.658637
vt 0.743879 0.595084
vt 0.465632 0.741338
vt 0.527640 0.738477
vt 0.530191 0.196298
vt 0.530191 0.154916
vt 0.469809 0.154916
vt 0.469809 0.196298
vt 0.375000 0.560817
vt 0.532153 0.747777
vt 0.533361 0.747777
vt 0.466639 0.747777
vt 0.525002 0.747777
vt 0.625000 0.228218
vt 0.625000 0.213953
vt 0.625000 0.209224
vt 0.625000 0.154916
vt 0.125000 0.553702
vt 0.125000 0.595084
vt 0.533361 0.750000
vt 0.625000 0.576916
vt 0.625000 0.541995
vt 0.625000 0.563355
vt 0.256802 0.559992
vt 0.256386 0.581456
vt 0.469809 0.750000
vt 0.530191 0.750000
vt 0.530191 0.193760
vt 0.469809 0.193760
vt 0.375000 0.563355
vt 0.625000 0.227257
vt 0.125000 0.556240
vt 0.625000 0.538202
vt 0.625000 0.559541
vt 0.256630 0.568870
vt 0.256876 0.556181
vt 0.256460 0.577624
vt 0.530191 0.197573
vt 0.469809 0.197573
vt 0.375000 0.559541
vt 0.625000 0.228702
vt 0.125000 0.552427
s 0
f 27/1/1 3/2/1 11/3/1 23/4/1 13/5/1 9/6/1
f 35/7/2 2/8/2 19/9/2 39/10/2 13/5/2 23/4/2 11/3/2
f 59/11/3 60/12/3 11/3/3 3/2/3 41/13/3 35/14/3 55/15/3 56/16/3 58/17/3 57/18/3
f 35/14/3 11/3/3 60/12/3 55/15/3
f 1/19/4 15/20/4 19/9/4 2/8/4
f 41/21/5 3/2/5 27/1/5 9/6/5 47/22/5 15/23/5 1/24/5
f 13/5/6 39/25/6 47/26/6 9/6/6
f 2/27/3 35/14/3 41/13/3 1/28/3
f 70/29/7 15/20/7 47/26/7 39/25/7 66/30/7 65/31/7 72/32/7 69/33/7 68/34/7 78/35/7 79/36/7 77/37/7 76/38/7 74/39/7 73/40/7 67/41/7
f 68/34/7 67/41/7 73/40/7 75/42/7 78/35/7
f 71/43/7 72/32/7 65/31/7 64/44/7 61/45/7 62/46/7 19/9/7 15/20/7 70/29/7
f 63/47/7 66/30/7 39/25/7 19/9/7 62/46/7
f 10/48/2 50/49/2 64/50/2 65/51/2
f 43/52/5 8/53/5 66/54/5 63/55/5
f 43/52/5 53/56/5 34/57/5 8/58/5
f 54/59/8 46/60/8 49/61/8 51/62/8
f 10/48/2 38/63/2 52/64/2 50/65/2
f 55/66/9 54/59/9 51/62/9 56/67/9
f 61/68/10 49/69/10 46/70/10 62/71/10
f 8/53/11 10/48/11 65/51/11 66/72/11
f 57/73/12 58/74/12 38/63/12 10/48/12 8/53/12 34/57/12 60/75/12 59/76/12
f 64/77/13 50/78/13 49/69/13 61/68/13
f 52/79/14 51/62/14 49/61/14 50/80/14
f 62/81/15 46/82/15 43/52/15 63/55/15
f 54/59/16 53/56/16 43/52/16 46/60/16
f 56/67/17 51/62/17 52/6/17 38/6/17 58/83/17
f 60/75/18 34/57/18 53/56/18 54/59/18 55/66/18
f 7/48/2 40/84/2 67/85/2 68/86/2
f 72/87/5 31/52/5 5/53/5 69/88/5
f 31/52/5 45/56/5 21/57/5 5/58/5
f 48/59/8 36/60/8 37/61/8 42/62/8
f 7/48/2 25/63/2 44/64/2 40/65/2
f 17/89/9 48/59/9 42/62/9 29/90/9
f 70/91/10 37/69/10 36/70/10 71/92/10
f 5/53/11 7/48/11 68/86/11 69/93/11
f 25/63/19 7/48/19 5/53/19 21/57/19 17/89/19 29/90/19
f 67/94/13 40/78/13 37/69/13 70/91/13
f 44/79/14 42/62/14 37/61/14 40/80/14
f 71/95/15 36/82/15 31/52/15 72/87/15
f 45/56/16 31/52/16 36/60/16 48/59/16
f 25/6/17 29/90/17 42/62/17 44/6/17
f 17/89/18 21/57/18 45/56/18 48/59/18
f 6/48/2 26/49/2 76/96/2 77/97/2
f 78/98/5 75/99/5 20/52/5 4/53/5 79/100/5
f 20/52/5 32/56/5 14/57/5 4/58/5
f 24/61/8 28/62/8 33/59/8 22/60/8
f 6/48/2 16/63/2 30/64/2 26/65/2
f 12/89/9 33/59/9 28/62/9 18/90/9
f 74/101/10 24/69/10 22/70/10 73/102/10
f 4/53/11 6/48/11 77/97/11 79/103/11
f 6/48/19 4/53/19 14/57/19 12/89/19 18/90/19 16/63/19
f 76/104/13 26/78/13 24/69/13 74/101/13
f 30/79/14 28/62/14 24/61/14 26/80/14
f 73/105/15 22/82/15 20/52/15 75/99/15
f 32/56/16 20/52/16 22/60/16 33/59/16
f 16/6/17 18/90/17 28/62/17 30/6/17
f 12/89/18 14/57/18 32/56/18 33/59/18
f 55/15/6 56/16/6 59/11/6 60/12/6
f 56/16/6 58/17/6 59/11/6
o knife.004
v 6.809241 1.260118 8.367970
v 6.809241 1.260118 8.411674
v 7.144536 0.791556 8.367970
v 7.144536 0.791556 8.411674
v 6.746806 1.194959 8.367970
v 6.675426 1.120618 8.384544
v 6.675426 1.120618 8.395100
v 6.746806 1.194959 8.411674
v 7.672880 0.020732 8.384544
v 7.447644 0.352717 8.367970
v 7.447644 0.352717 8.411674
v 7.672880 0.020732 8.395100
v 7.080471 0.724913 8.367970
v 7.009101 0.650911 8.384544
v 7.009101 0.650911 8.395100
v 7.080471 0.724913 8.411674
v 7.455127 0.123639 8.395100
v 7.362411 0.393386 8.411674
v 7.362411 0.393386 8.367970
v 7.455127 0.123639 8.384544
v 6.826479 0.851018 8.353111
v 6.852191 0.869021 8.338980
v 6.852191 0.869021 8.440664
v 6.826479 0.851018 8.426533
v 6.985775 0.962558 8.338980
v 7.011487 0.980561 8.353111
v 7.011487 0.980561 8.426533
v 6.985775 0.962558 8.440664
v 6.498117 1.374691 8.338980
v 6.445348 1.395330 8.353111
v 6.467412 1.460963 8.338980
v 6.391438 1.546797 8.353111
v 6.467412 1.460963 8.440664
v 6.391438 1.546797 8.426533
v 6.498117 1.374691 8.440664
v 6.445348 1.395330 8.426533
v 6.561134 1.526588 8.338980
v 6.506461 1.627337 8.353111
v 6.631701 1.468228 8.338980
v 6.630355 1.524873 8.353111
v 6.631701 1.468228 8.440664
v 6.630355 1.524873 8.426533
v 6.561134 1.526588 8.440664
v 6.506461 1.627337 8.426533
vn -0.0000 -0.0000 1.0000
vn -0.0000 -0.0000 -1.0000
vn -0.7635 -0.6458 -0.0000
vn -0.4273 -0.9041 -0.0000
vn -0.8152 -0.5791 -0.0000
vn 0.8132 0.5819 -0.0000
vn 0.8243 0.5661 -0.0000
vn -0.1318 -0.0936 0.9868
vn -0.1212 -0.1027 0.9873
vn -0.1318 -0.0936 -0.9868
vn -0.1212 -0.1027 -0.9873
vn -0.0347 -0.0732 0.9967
vn -0.0347 -0.0732 -0.9967
vn -0.7217 0.6922 -0.0000
vn 0.6373 0.7706 -0.0000
vn 0.8192 0.5736 -0.0000
vn 0.5736 -0.8192 -0.0000
vn -0.9421 -0.3353 -0.0000
vn -0.5736 0.8192 -0.0000
vn -0.2954 -0.1051 0.9496
vn -0.2954 -0.1051 -0.9496
vn 0.1998 0.2416 0.9496
vn 0.1998 0.2416 -0.9496
vn -0.3363 -0.2355 -0.9118
vn -0.0706 0.1009 -0.9924
vn 0.3363 0.2355 -0.9118
vn -0.3363 -0.2355 0.9118
vn -0.0706 0.1009 0.9924
vn 0.3363 0.2355 0.9118
vn -0.8192 -0.5736 -0.0000
vt 0.625000 0.500000
vt 0.742032 0.500000
vt 0.743879 0.595084
vt 0.625000 0.595084
vt 0.257968 0.500000
vt 0.375000 0.500000
vt 0.375000 0.595084
vt 0.256121 0.595084
vt 0.375000 0.683500
vt 0.318307 0.668310
vt 0.431083 0.669688
vt 0.506533 0.643159
vt 0.435382 0.321843
vt 0.314618 0.428157
vt 0.743879 0.595084
vt 0.681693 0.668310
vt 0.625000 0.683500
vt 0.469809 0.750000
vt 0.530191 0.750000
vt 0.431083 0.669688
vt 0.469809 0.154916
vt 0.530191 0.154916
vt 0.530191 0.250000
vt 0.469809 0.250000
vt 0.625000 0.213953
vt 0.625000 0.250000
vt 0.625000 0.209224
vt 0.625000 0.154916
vt 0.125000 0.595084
vt 0.125000 0.500000
vt 0.625000 0.750000
vt 0.375000 0.382968
vt 0.625000 0.382968
vt 0.590256 0.547285
vt 0.409744 0.547285
vt 0.409744 0.452715
vt 0.590256 0.452715
vt 0.590256 0.750000
vt 0.409744 0.750000
vt 0.159744 0.561676
vt 0.186676 0.534744
vt 0.313324 0.534744
vt 0.340256 0.561676
vt 0.340256 0.750000
vt 0.159744 0.750000
vt 0.375000 0.784744
vt 0.409744 0.750000
vt 0.590256 0.750000
vt 0.625000 0.784744
vt 0.625000 0.965256
vt 0.590256 1.000000
vt 0.409744 1.000000
vt 0.375000 0.965256
vt 0.590256 0.297285
vt 0.409744 0.297285
vt 0.409744 0.202715
vt 0.590256 0.202715
vt 0.409744 0.297285
vt 0.590256 0.297285
vt 0.659744 0.561676
vt 0.686677 0.534744
vt 0.813324 0.534744
vt 0.840256 0.561676
vt 0.840256 0.750000
vt 0.659744 0.750000
vt 0.625000 0.223068
vt 0.625000 0.276932
vt 0.125000 0.547285
vt 0.172285 0.500000
vt 0.625000 0.473068
vt 0.625000 0.526932
vt 0.327715 0.500000
vt 0.375000 0.547285
vt 0.125000 0.750000
vt 0.625000 0.000000
vt 0.625000 0.188324
vt 0.590256 0.000000
vt 0.625000 0.311676
vt 0.625000 0.438324
vt 0.409744 0.000000
s 0
f 81/106/20 87/107/20 95/108/20 83/109/20
f 84/110/21 80/111/21 82/112/21 92/113/21
f 92/113/21 82/112/21 89/114/21 98/115/21
f 99/116/22 96/117/22 94/118/22 93/119/22
f 83/109/20 95/120/20 97/121/20 90/122/20
f 88/123/23 91/124/23 96/117/23 99/125/23
f 93/126/24 94/127/24 86/128/24 85/129/24
f 80/111/25 81/106/25 83/109/25 82/112/25
f 82/112/26 83/109/26 90/122/26 91/124/26 88/123/26 89/114/26
f 95/130/27 87/131/27 86/128/27 94/127/27
f 97/132/28 95/133/28 94/118/28 96/117/28
f 84/110/29 92/113/29 93/134/29 85/135/29
f 99/116/30 93/119/30 92/113/30 98/115/30
f 90/136/31 97/136/31 96/117/31 91/124/31
f 88/123/32 99/125/32 98/115/32 89/114/32
f 84/137/33 85/129/33 86/128/33 87/138/33 81/106/33 80/111/33
f 121/139/34 119/140/34 117/141/34 123/142/34
f 119/140/35 121/139/35 106/143/35 105/144/35
f 108/145/21 110/146/21 116/147/21 118/148/21 104/149/21 101/150/21
f 104/151/36 105/152/36 106/153/36 107/154/36 102/155/36 103/156/36 100/157/36 101/158/36
f 113/159/37 111/160/37 109/161/37 115/162/37
f 111/163/38 113/164/38 123/142/38 117/141/38
f 120/165/20 122/166/20 112/167/20 114/168/20 102/169/20 107/170/20
f 114/171/39 112/172/39 113/159/39 115/162/39
f 110/146/40 108/145/40 109/173/40 111/174/40
f 122/175/41 120/176/41 121/139/41 123/142/41
f 118/148/42 116/147/42 117/177/42 119/178/42
f 100/179/43 109/173/43 108/145/43 101/150/43
f 111/174/44 117/177/44 116/147/44 110/146/44
f 119/140/45 105/144/45 104/149/45 118/148/45
f 102/180/46 114/181/46 115/162/46 103/182/46
f 112/183/47 122/184/47 123/142/47 113/164/47
f 106/143/48 121/139/48 120/165/48 107/170/48
f 100/185/49 103/182/49 115/162/49 109/161/49
o knife.006
v 7.108712 1.338549 8.860772
v 7.108712 1.338549 8.893411
v 7.359117 0.988618 8.860772
v 7.359117 0.988618 8.893411
v 7.062084 1.289887 8.860772
v 7.008776 1.234367 8.873150
v 7.008776 1.234367 8.881033
v 7.062084 1.289887 8.893411
v 7.753693 0.412953 8.873150
v 7.585483 0.660886 8.860772
v 7.585483 0.660886 8.893411
v 7.753693 0.412953 8.881033
v 7.311271 0.938848 8.860772
v 7.257970 0.883582 8.873150
v 7.257970 0.883582 8.881033
v 7.311271 0.938848 8.893411
v 7.591071 0.489805 8.881033
v 7.521829 0.691257 8.893411
v 7.521829 0.691257 8.860772
v 7.591071 0.489805 8.873150
v 7.121586 1.033026 8.849675
v 7.140788 1.046471 8.839122
v 7.140788 1.046471 8.915061
v 7.121586 1.033026 8.904508
v 7.240551 1.116326 8.839122
v 7.259752 1.129771 8.849675
v 7.259752 1.129771 8.904508
v 7.240551 1.116326 8.915061
v 6.876359 1.424114 8.839122
v 6.836950 1.439528 8.849675
v 6.853427 1.488544 8.839122
v 6.796689 1.552646 8.849675
v 6.853427 1.488544 8.915061
v 6.796689 1.552646 8.904508
v 6.876359 1.424114 8.915061
v 6.836950 1.439528 8.904508
v 6.923421 1.537554 8.839122
v 6.882590 1.612795 8.849675
v 6.976122 1.493969 8.839122
v 6.975117 1.536273 8.849675
v 6.976122 1.493969 8.915061
v 6.975117 1.536273 8.904508
v 6.923421 1.537554 8.915061
v 6.882590 1.612795 8.904508
vn -0.0000 -0.0000 1.0000
vn -0.0000 -0.0000 -1.0000
vn -0.7635 -0.6458 -0.0000
vn -0.4273 -0.9041 -0.0000
vn -0.8152 -0.5791 -0.0000
vn 0.8132 0.5819 -0.0000
vn 0.8243 0.5661 -0.0000
vn -0.1318 -0.0936 0.9868
vn -0.1212 -0.1027 0.9873
vn -0.1318 -0.0936 -0.9868
vn -0.1212 -0.1027 -0.9873
vn -0.0347 -0.0732 0.9967
vn -0.0347 -0.0732 -0.9967
vn -0.7217 0.6922 -0.0000
vn 0.6373 0.7706 -0.0000
vn 0.8192 0.5736 -0.0000
vn 0.5736 -0.8192 -0.0000
vn -0.9421 -0.3353 -0.0000
vn -0.5736 0.8192 -0.0000
vn -0.2954 -0.1051 0.9496
vn -0.2954 -0.1051 -0.9496
vn 0.1998 0.2416 0.9496
vn 0.1998 0.2416 -0.9496
vn -0.3363 -0.2355 -0.9118
vn -0.0706 0.1009 -0.9924
vn 0.3363 0.2355 -0.9118
vn -0.3363 -0.2355 0.9118
vn -0.0706 0.1009 0.9924
vn 0.3363 0.2355 0.9118
vn -0.8192 -0.5736 -0.0000
vt 0.625000 0.500000
vt 0.742032 0.500000
vt 0.743879 0.595084
vt 0.625000 0.595084
vt 0.257968 0.500000
vt 0.375000 0.500000
vt 0.375000 0.595084
vt 0.256121 0.595084
vt 0.375000 0.683500
vt 0.318307 0.668310
vt 0.431083 0.669688
vt 0.506533 0.643159
vt 0.435382 0.321843
vt 0.314618 0.428157
vt 0.743879 0.595084
vt 0.681693 0.668310
vt 0.625000 0.683500
vt 0.469809 0.750000
vt 0.530191 0.750000
vt 0.431083 0.669688
vt 0.469809 0.154916
vt 0.530191 0.154916
vt 0.530191 0.250000
vt 0.469809 0.250000
vt 0.625000 0.213953
vt 0.625000 0.250000
vt 0.625000 0.209224
vt 0.625000 0.154916
vt 0.125000 0.595084
vt 0.125000 0.500000
vt 0.625000 0.750000
vt 0.375000 0.382968
vt 0.625000 0.382968
vt 0.590256 0.547285
vt 0.409744 0.547285
vt 0.409744 0.452715
vt 0.590256 0.452715
vt 0.590256 0.750000
vt 0.409744 0.750000
vt 0.159744 0.561676
vt 0.186676 0.534744
vt 0.313324 0.534744
vt 0.340256 0.561676
vt 0.340256 0.750000
vt 0.159744 0.750000
vt 0.375000 0.784744
vt 0.409744 0.750000
vt 0.590256 0.750000
vt 0.625000 0.784744
vt 0.625000 0.965256
vt 0.590256 1.000000
vt 0.409744 1.000000
vt 0.375000 0.965256
vt 0.590256 0.297285
vt 0.409744 0.297285
vt 0.409744 0.202715
vt 0.590256 0.202715
vt 0.409744 0.297285
vt 0.590256 0.297285
vt 0.659744 0.561676
vt 0.686677 0.534744
vt 0.813324 0.534744
vt 0.840256 0.561676
vt 0.840256 0.750000
vt 0.659744 0.750000
vt 0.625000 0.223068
vt 0.625000 0.276932
vt 0.125000 0.547285
vt 0.172285 0.500000
vt 0.625000 0.473068
vt 0.625000 0.526932
vt 0.327715 0.500000
vt 0.375000 0.547285
vt 0.125000 0.750000
vt 0.625000 0.000000
vt 0.625000 0.188324
vt 0.590256 0.000000
vt 0.625000 0.311676
vt 0.625000 0.438324
vt 0.409744 0.000000
s 0
f 125/186/50 131/187/50 139/188/50 127/189/50
f 128/190/51 124/191/51 126/192/51 136/193/51
f 136/193/51 126/192/51 133/194/51 142/195/51
f 143/196/52 140/197/52 138/198/52 137/199/52
f 127/189/50 139/200/50 141/201/50 134/202/50
f 132/203/53 135/204/53 140/197/53 143/205/53
f 137/206/54 138/207/54 130/208/54 129/209/54
f 124/191/55 125/186/55 127/189/55 126/192/55
f 126/192/56 127/189/56 134/202/56 135/204/56 132/203/56 133/194/56
f 139/210/57 131/211/57 130/208/57 138/207/57
f 141/212/58 139/213/58 138/198/58 140/197/58
f 128/190/59 136/193/59 137/214/59 129/215/59
f 143/196/60 137/199/60 136/193/60 142/195/60
f 134/216/61 141/216/61 140/197/61 135/204/61
f 132/203/62 143/205/62 142/195/62 133/194/62
f 128/217/63 129/209/63 130/208/63 131/218/63 125/186/63 124/191/63
f 165/219/64 163/220/64 161/221/64 167/222/64
f 163/220/65 165/219/65 150/223/65 149/224/65
f 152/225/51 154/226/51 160/227/51 162/228/51 148/229/51 145/230/51
f 148/231/66 149/232/66 150/233/66 151/234/66 146/235/66 147/236/66 144/237/66 145/238/66
f 157/239/67 155/240/67 153/241/67 159/242/67
f 155/243/68 157/244/68 167/222/68 161/221/68
f 164/245/50 166/246/50 156/247/50 158/248/50 146/249/50 151/250/50
f 158/251/69 156/252/69 157/239/69 159/242/69
f 154/226/70 152/225/70 153/253/70 155/254/70
f 166/255/71 164/256/71 165/219/71 167/222/71
f 162/228/72 160/227/72 161/257/72 163/258/72
f 144/259/73 153/253/73 152/225/73 145/230/73
f 155/254/74 161/257/74 160/227/74 154/226/74
f 163/220/75 149/224/75 148/229/75 162/228/75
f 146/260/76 158/261/76 159/242/76 147/262/76
f 156/263/77 166/264/77 167/222/77 157/244/77
f 150/223/78 165/219/78 164/245/78 151/250/78
f 144/265/79 147/262/79 159/242/79 153/241/79
