# Blender 4.4.0
# www.blender.org
mtllib knife.mtl
o knife
v 25.330236 -0.019833 8.293583
v 25.330236 0.019833 8.293583
v 25.335592 -0.019833 8.816508
v 25.335592 0.019833 8.816508
v 25.249895 -0.019833 8.309525
v 25.158123 -0.004790 8.327636
v 25.158123 0.004790 8.327636
v 25.249895 0.019833 8.309525
v 25.327122 -0.004790 9.664663
v 25.332493 -0.019833 9.300578
v 25.332493 0.019833 9.300578
v 25.327122 0.004790 9.664663
v 25.253267 -0.019833 8.832705
v 25.161678 -0.004790 8.850569
v 25.161678 0.004790 8.850569
v 25.253267 0.019833 8.832705
v 25.218798 0.004790 9.474791
v 25.290295 0.019833 9.225969
v 25.290295 -0.019833 9.225969
v 25.218798 -0.004790 9.474791
v 25.130075 -0.033320 8.606719
v 25.158566 -0.046146 8.606719
v 25.158566 0.046146 8.606719
v 25.130075 0.033320 8.606719
v 25.306578 -0.046146 8.606719
v 25.335068 -0.033320 8.606719
v 25.335068 0.033320 8.606719
v 25.306578 0.046146 8.606719
v 25.158566 -0.046146 8.046429
v 25.130075 -0.033320 8.003613
v 25.180649 -0.046146 7.966300
v 25.168848 -0.033320 7.862932
v 25.180649 0.046146 7.966300
v 25.168848 0.033320 7.862932
v 25.158566 0.046146 8.046429
v 25.130075 0.033320 8.003613
v 25.284494 -0.046146 7.966301
v 25.296295 -0.033320 7.862932
v 25.306578 -0.046146 8.046429
v 25.335068 -0.033320 8.003613
v 25.306578 0.046146 8.046429
v 25.335068 0.033320 8.003613
v 25.284494 0.046146 7.966301
v 25.296295 0.033320 7.862932
vn -0.0000 1.0000 -0.0000
vn -0.0000 -1.0000 -0.0000
vn -0.9958 -0.0000 0.0911
vn -0.8686 -0.0000 0.4955
vn -1.0000 -0.0000 0.0068
vn 0.9999 -0.0000 -0.0102
vn 1.0000 -0.0000 0.0091
vn -0.1617 0.9868 0.0011
vn -0.1582 0.9873 0.0146
vn -0.1617 -0.9868 0.0011
vn -0.1582 -0.9873 0.0146
vn -0.0704 0.9967 0.0401
vn -0.0704 -0.9967 0.0401
vn -0.1942 -0.0000 -0.9810
vn 0.9641 -0.0000 -0.2657
vn 1.0000 -0.0000 -0.0000
vn -0.0000 -0.0000 1.0000
vn -0.9641 -0.0000 -0.2657
vn -0.0000 -0.0000 -1.0000
vn -0.3023 0.9496 -0.0833
vn -0.3023 -0.9496 -0.0833
vn 0.3023 0.9496 -0.0833
vn 0.3023 -0.9496 -0.0833
vn -0.4105 -0.9119 -0.0000
vn -0.0000 -0.9924 -0.1231
vn 0.4105 -0.9119 -0.0000
vn -0.4105 0.9119 -0.0000
vn -0.0000 0.9924 -0.1231
vn 0.4105 0.9119 -0.0000
vn -1.0000 -0.0000 -0.0000
vt 0.625000 0.500000
vt 0.742032 0.500000
vt 0.743879 0.595084
vt 0.625000 0.595084
vt 0.257968 0.500000
vt 0.375000 0.500000
vt 0.375000 0.595084
vt 0.256121 0.595084
vt 0.375000 0.683500
vt 0.318307 0.668310
vt 0.431083 0.669688
vt 0.506533 0.643159
vt 0.435382 0.321843
vt 0.314618 0.428157
vt 0.743879 0.595084
vt 0.681693 0.668310
vt 0.625000 0.683500
vt 0.469809 0.750000
vt 0.530191 0.750000
vt 0.431083 0.669688
vt 0.469809 0.154916
vt 0.530191 0.154916
vt 0.530191 0.250000
vt 0.469809 0.250000
vt 0.625000 0.213953
vt 0.625000 0.250000
vt 0.625000 0.209224
vt 0.625000 0.154916
vt 0.125000 0.595084
vt 0.125000 0.500000
vt 0.625000 0.750000
vt 0.375000 0.382968
vt 0.625000 0.382968
vt 0.590256 0.547285
vt 0.409744 0.547285
vt 0.409744 0.452715
vt 0.590256 0.452715
vt 0.590256 0.750000
vt 0.409744 0.750000
vt 0.159744 0.561676
vt 0.186676 0.534744
vt 0.313324 0.534744
vt 0.340256 0.561676
vt 0.340256 0.750000
vt 0.159744 0.750000
vt 0.375000 0.784744
vt 0.409744 0.750000
vt 0.590256 0.750000
vt 0.625000 0.784744
vt 0.625000 0.965256
vt 0.590256 1.000000
vt 0.409744 1.000000
vt 0.375000 0.965256
vt 0.590256 0.297285
vt 0.409744 0.297285
vt 0.409744 0.202715
vt 0.590256 0.202715
vt 0.409744 0.297285
vt 0.590256 0.297285
vt 0.659744 0.561676
vt 0.686677 0.534744
vt 0.813324 0.534744
vt 0.840256 0.561676
vt 0.840256 0.750000
vt 0.659744 0.750000
vt 0.625000 0.223068
vt 0.625000 0.276932
vt 0.125000 0.547285
vt 0.172285 0.500000
vt 0.625000 0.473068
vt 0.625000 0.526932
vt 0.327715 0.500000
vt 0.375000 0.547285
vt 0.125000 0.750000
vt 0.625000 0.000000
vt 0.625000 0.188324
vt 0.590256 0.000000
vt 0.625000 0.311676
vt 0.625000 0.438324
vt 0.409744 0.000000
s 0
f 2/1/1 8/2/1 16/3/1 4/4/1
f 5/5/2 1/6/2 3/7/2 13/8/2
f 13/8/2 3/7/2 10/9/2 19/10/2
f 20/11/3 17/12/3 15/13/3 14/14/3
f 4/4/1 16/15/1 18/16/1 11/17/1
f 9/18/4 12/19/4 17/12/4 20/20/4
f 14/21/5 15/22/5 7/23/5 6/24/5
f 1/6/6 2/1/6 4/4/6 3/7/6
f 3/7/7 4/4/7 11/17/7 12/19/7 9/18/7 10/9/7
f 16/25/8 8/26/8 7/23/8 15/22/8
f 18/27/9 16/28/9 15/13/9 17/12/9
f 5/5/10 13/8/10 14/29/10 6/30/10
f 20/11/11 14/14/11 13/8/11 19/10/11
f 11/31/12 18/31/12 17/12/12 12/19/12
f 9/18/13 20/20/13 19/10/13 10/9/13
f 5/32/14 6/24/14 7/23/14 8/33/14 2/1/14 1/6/14
f 42/34/15 40/35/15 38/36/15 44/37/15
f 40/35/16 42/34/16 27/38/16 26/39/16
f 29/40/2 31/41/2 37/42/2 39/43/2 25/44/2 22/45/2
f 25/46/17 26/47/17 27/48/17 28/49/17 23/50/17 24/51/17 21/52/17 22/53/17
f 34/54/18 32/55/18 30/56/18 36/57/18
f 32/58/19 34/59/19 44/37/19 38/36/19
f 41/60/1 43/61/1 33/62/1 35/63/1 23/64/1 28/65/1
f 35/66/20 33/67/20 34/54/20 36/57/20
f 31/41/21 29/40/21 30/68/21 32/69/21
f 43/70/22 41/71/22 42/34/22 44/37/22
f 39/43/23 37/42/23 38/72/23 40/73/23
f 21/74/24 30/68/24 29/40/24 22/45/24
f 32/69/25 38/72/25 37/42/25 31/41/25
f 40/35/26 26/39/26 25/44/26 39/43/26
f 23/75/27 35/76/27 36/57/27 24/77/27
f 33/78/28 43/79/28 44/37/28 34/59/28
f 27/38/29 42/34/29 41/60/29 28/65/29
f 21/80/30 24/77/30 36/57/30 30/56/30
